<svg version="1.1" xmlns="http://www.w3.org/2000/svg" viewBox="0 0 1074.796875 746.26171875" width="1074.796875" height="746.26171875">
  <!-- svg-source:excalidraw -->
  
  <defs>
    <style class="style-fonts">
      @font-face {
        font-family: "Virgil";
        src: url("https://excalidraw.com/Virgil.woff2");
      }
      @font-face {
        font-family: "Cascadia";
        src: url("https://excalidraw.com/Cascadia.woff2");
      }
    </style>
    
  </defs>
  <rect x="0" y="0" width="1074.796875" height="746.26171875" fill="#ffffff"></rect><g stroke-linecap="round" transform="translate(429.1328125 10) rotate(0 145.146484375 62.5)"><path d="M31.25 0 M31.25 0 C122.06 0, 212.86 0, 259.04 0 M31.25 0 C92.32 0, 153.4 0, 259.04 0 M259.04 0 C279.88 0, 290.29 10.42, 290.29 31.25 M259.04 0 C279.88 0, 290.29 10.42, 290.29 31.25 M290.29 31.25 C290.29 54.79, 290.29 78.33, 290.29 93.75 M290.29 31.25 C290.29 44.22, 290.29 57.18, 290.29 93.75 M290.29 93.75 C290.29 114.58, 279.88 125, 259.04 125 M290.29 93.75 C290.29 114.58, 279.88 125, 259.04 125 M259.04 125 C185.46 125, 111.87 125, 31.25 125 M259.04 125 C194.18 125, 129.32 125, 31.25 125 M31.25 125 C10.42 125, 0 114.58, 0 93.75 M31.25 125 C10.42 125, 0 114.58, 0 93.75 M0 93.75 C0 76.52, 0 59.29, 0 31.25 M0 93.75 C0 70.43, 0 47.11, 0 31.25 M0 31.25 C0 10.42, 10.42 0, 31.25 0 M0 31.25 C0 10.42, 10.42 0, 31.25 0" stroke="#1e1e1e" stroke-width="2" fill="none"></path></g><g transform="translate(451.994140625 38) rotate(0 122.28515625 34.5)"><text x="122.28515625" y="0" font-family="Helvetica, Segoe UI Emoji" font-size="20px" fill="#1e1e1e" text-anchor="middle" style="white-space: pre;" direction="ltr" dominant-baseline="text-before-edge">Design UX/UI da biblioteca </text><text x="122.28515625" y="23" font-family="Helvetica, Segoe UI Emoji" font-size="20px" fill="#1e1e1e" text-anchor="middle" style="white-space: pre;" direction="ltr" dominant-baseline="text-before-edge">feita pelo designer</text><text x="122.28515625" y="46" font-family="Helvetica, Segoe UI Emoji" font-size="20px" fill="#1e1e1e" text-anchor="middle" style="white-space: pre;" direction="ltr" dominant-baseline="text-before-edge">(Figma)</text></g><g stroke-linecap="round" transform="translate(10 290.4765625) rotate(0 173.021484375 74)"><path d="M32 0 M32 0 C101.78 0, 171.56 0, 314.04 0 M32 0 C117.37 0, 202.75 0, 314.04 0 M314.04 0 C335.38 0, 346.04 10.67, 346.04 32 M314.04 0 C335.38 0, 346.04 10.67, 346.04 32 M346.04 32 C346.04 54.35, 346.04 76.69, 346.04 116 M346.04 32 C346.04 59.11, 346.04 86.22, 346.04 116 M346.04 116 C346.04 137.33, 335.38 148, 314.04 148 M346.04 116 C346.04 137.33, 335.38 148, 314.04 148 M314.04 148 C241.21 148, 168.39 148, 32 148 M314.04 148 C224.07 148, 134.1 148, 32 148 M32 148 C10.67 148, 0 137.33, 0 116 M32 148 C10.67 148, 0 137.33, 0 116 M0 116 C0 87.9, 0 59.79, 0 32 M0 116 C0 98.44, 0 80.87, 0 32 M0 32 C0 10.67, 10.67 0, 32 0 M0 32 C0 10.67, 10.67 0, 32 0" stroke="#1e1e1e" stroke-width="2" fill="none"></path></g><g transform="translate(30.1552734375 306.9765625) rotate(0 152.8662109375 57.5)"><text x="152.8662109375" y="0" font-family="Helvetica, Segoe UI Emoji" font-size="20px" fill="#1e1e1e" text-anchor="middle" style="white-space: pre;" direction="ltr" dominant-baseline="text-before-edge">Acesso do designer da respectiva </text><text x="152.8662109375" y="23" font-family="Helvetica, Segoe UI Emoji" font-size="20px" fill="#1e1e1e" text-anchor="middle" style="white-space: pre;" direction="ltr" dominant-baseline="text-before-edge">biblioteca visual, através da fácil </text><text x="152.8662109375" y="46" font-family="Helvetica, Segoe UI Emoji" font-size="20px" fill="#1e1e1e" text-anchor="middle" style="white-space: pre;" direction="ltr" dominant-baseline="text-before-edge">implementação do Storybook no </text><text x="152.8662109375" y="69" font-family="Helvetica, Segoe UI Emoji" font-size="20px" fill="#1e1e1e" text-anchor="middle" style="white-space: pre;" direction="ltr" dominant-baseline="text-before-edge">Figma</text><text x="152.8662109375" y="92" font-family="Helvetica, Segoe UI Emoji" font-size="20px" fill="#1e1e1e" text-anchor="middle" style="white-space: pre;" direction="ltr" dominant-baseline="text-before-edge">( Storybook Connect)</text></g><g stroke-linecap="round" transform="translate(444.890625 611.26171875) rotate(0 165.6796875 62.5)"><path d="M31.25 0 M31.25 0 C121.96 0, 212.67 0, 300.11 0 M31.25 0 C88.7 0, 146.16 0, 300.11 0 M300.11 0 C320.94 0, 331.36 10.42, 331.36 31.25 M300.11 0 C320.94 0, 331.36 10.42, 331.36 31.25 M331.36 31.25 C331.36 44.78, 331.36 58.3, 331.36 93.75 M331.36 31.25 C331.36 44.56, 331.36 57.86, 331.36 93.75 M331.36 93.75 C331.36 114.58, 320.94 125, 300.11 125 M331.36 93.75 C331.36 114.58, 320.94 125, 300.11 125 M300.11 125 C199.09 125, 98.07 125, 31.25 125 M300.11 125 C212.11 125, 124.1 125, 31.25 125 M31.25 125 C10.42 125, 0 114.58, 0 93.75 M31.25 125 C10.42 125, 0 114.58, 0 93.75 M0 93.75 C0 78.53, 0 63.32, 0 31.25 M0 93.75 C0 74.85, 0 55.95, 0 31.25 M0 31.25 C0 10.42, 10.42 0, 31.25 0 M0 31.25 C0 10.42, 10.42 0, 31.25 0" stroke="#1e1e1e" stroke-width="2" fill="none"></path></g><g transform="translate(462.1376953125 639.26171875) rotate(0 148.4326171875 34.5)"><text x="148.4326171875" y="0" font-family="Helvetica, Segoe UI Emoji" font-size="20px" fill="#1e1e1e" text-anchor="middle" style="white-space: pre;" direction="ltr" dominant-baseline="text-before-edge">Criação e catalogação do código </text><text x="148.4326171875" y="23" font-family="Helvetica, Segoe UI Emoji" font-size="20px" fill="#1e1e1e" text-anchor="middle" style="white-space: pre;" direction="ltr" dominant-baseline="text-before-edge">em biblioteca visual do código</text><text x="148.4326171875" y="46" font-family="Helvetica, Segoe UI Emoji" font-size="20px" fill="#1e1e1e" text-anchor="middle" style="white-space: pre;" direction="ltr" dominant-baseline="text-before-edge">(Storybook)</text></g><g stroke-linecap="round" transform="translate(781.0546875 298.953125) rotate(0 141.87109375 62.5)"><path d="M31.25 0 M31.25 0 C79.06 0, 126.86 0, 252.49 0 M31.25 0 C86.15 0, 141.05 0, 252.49 0 M252.49 0 C273.33 0, 283.74 10.42, 283.74 31.25 M252.49 0 C273.33 0, 283.74 10.42, 283.74 31.25 M283.74 31.25 C283.74 44.15, 283.74 57.04, 283.74 93.75 M283.74 31.25 C283.74 46.39, 283.74 61.53, 283.74 93.75 M283.74 93.75 C283.74 114.58, 273.33 125, 252.49 125 M283.74 93.75 C283.74 114.58, 273.33 125, 252.49 125 M252.49 125 C178.57 125, 104.66 125, 31.25 125 M252.49 125 C164.7 125, 76.9 125, 31.25 125 M31.25 125 C10.42 125, 0 114.58, 0 93.75 M31.25 125 C10.42 125, 0 114.58, 0 93.75 M0 93.75 C0 70.6, 0 47.46, 0 31.25 M0 93.75 C0 76.63, 0 59.51, 0 31.25 M0 31.25 C0 10.42, 10.42 0, 31.25 0 M0 31.25 C0 10.42, 10.42 0, 31.25 0" stroke="#1e1e1e" stroke-width="2" fill="none"></path></g><g transform="translate(788.9609375 326.953125) rotate(0 133.96484375 34.5)"><text x="133.96484375" y="0" font-family="Helvetica, Segoe UI Emoji" font-size="20px" fill="#1e1e1e" text-anchor="middle" style="white-space: pre;" direction="ltr" dominant-baseline="text-before-edge">Implementação do design em </text><text x="133.96484375" y="23" font-family="Helvetica, Segoe UI Emoji" font-size="20px" fill="#1e1e1e" text-anchor="middle" style="white-space: pre;" direction="ltr" dominant-baseline="text-before-edge">componentes reutilizáveis</text><text x="133.96484375" y="46" font-family="Helvetica, Segoe UI Emoji" font-size="20px" fill="#1e1e1e" text-anchor="middle" style="white-space: pre;" direction="ltr" dominant-baseline="text-before-edge">(Código)</text></g><g stroke-linecap="round"><g transform="translate(734.67578125 63.426487180783965) rotate(0 106.00735809084301 111.31411387198551)"><path d="M0 0 C30.97 2.29, 150.49 -24.51, 185.83 13.76 C221.16 52.03, 207.65 193.65, 212.01 229.63" stroke="#1e1e1e" stroke-width="2.5" fill="none" stroke-dasharray="8 10"></path></g><g transform="translate(734.67578125 63.426487180783965) rotate(0 106.00735809084301 111.31411387198551)"><path d="M201.3 201.61 C204.86 210.94, 208.43 220.27, 212.01 229.63" stroke="#1e1e1e" stroke-width="2.5" fill="none"></path></g><g transform="translate(734.67578125 63.426487180783965) rotate(0 106.00735809084301 111.31411387198551)"><path d="M221.81 201.28 C218.55 210.72, 215.29 220.16, 212.01 229.63" stroke="#1e1e1e" stroke-width="2.5" fill="none"></path></g></g><mask></mask><g stroke-linecap="round"><g transform="translate(744.3245727012451 482.64217785828305) rotate(89.30789053455786 125.96814419267292 80.60718315170908)"><path d="M0 0 C38.5 2.8, 190.63 -10.18, 231.03 16.81 C271.43 43.8, 240.5 137.75, 242.39 161.94" stroke="#1e1e1e" stroke-width="2.5" fill="none" stroke-dasharray="8 10"></path></g><g transform="translate(744.3245727012451 482.64217785828305) rotate(89.30789053455786 125.96814419267292 80.60718315170908)"><path d="M235.5 132.74 C237.98 143.26, 240.47 153.78, 242.39 161.94" stroke="#1e1e1e" stroke-width="2.5" fill="none"></path></g><g transform="translate(744.3245727012451 482.64217785828305) rotate(89.30789053455786 125.96814419267292 80.60718315170908)"><path d="M255.88 135.14 C251.02 144.79, 246.16 154.45, 242.39 161.94" stroke="#1e1e1e" stroke-width="2.5" fill="none"></path></g></g><mask></mask><g stroke-linecap="round"><g transform="translate(185.27389360591923 450.5393406189362) rotate(179.13541082153233 120.81849794658072 113.9470337819202)"><path d="M0 0 C36.04 3.65, 176.28 -16.44, 216.26 21.89 C256.25 60.22, 235.97 195.28, 239.92 229.96" stroke="#1e1e1e" stroke-width="2.5" fill="none" stroke-dasharray="8 10"></path></g><g transform="translate(185.27389360591923 450.5393406189362) rotate(179.13541082153233 120.81849794658072 113.9470337819202)"><path d="M230.03 201.64 C233.83 212.53, 237.63 223.42, 239.92 229.96" stroke="#1e1e1e" stroke-width="2.5" fill="none"></path></g><g transform="translate(185.27389360591923 450.5393406189362) rotate(179.13541082153233 120.81849794658072 113.9470337819202)"><path d="M250.55 201.91 C246.46 212.7, 242.37 223.48, 239.92 229.96" stroke="#1e1e1e" stroke-width="2.5" fill="none"></path></g></g><mask></mask><g stroke-linecap="round"><g transform="translate(182.88215030183153 66.23518091546629) rotate(270.3812370781347 115.04379594473374 106.89766280030528)"><path d="M0 0 C34.55 1.82, 169.5 -26.14, 207.32 10.9 C245.14 47.93, 223.65 186.99, 226.92 222.21" stroke="#1e1e1e" stroke-width="2.5" fill="none" stroke-dasharray="8 10"></path></g><g transform="translate(182.88215030183153 66.23518091546629) rotate(270.3812370781347 115.04379594473374 106.89766280030528)"><path d="M217.43 193.75 C219.75 200.72, 222.07 207.68, 226.92 222.21" stroke="#1e1e1e" stroke-width="2.5" fill="none"></path></g><g transform="translate(182.88215030183153 66.23518091546629) rotate(270.3812370781347 115.04379594473374 106.89766280030528)"><path d="M237.94 194.31 C235.25 201.14, 232.55 207.96, 226.92 222.21" stroke="#1e1e1e" stroke-width="2.5" fill="none"></path></g></g><mask></mask><g transform="translate(491.0703125 354.0152587890625) rotate(0 80.60546875 11.5)"><text x="0" y="0" font-family="Helvetica, Segoe UI Emoji" font-size="20px" fill="#1e1e1e" text-anchor="start" style="white-space: pre;" direction="ltr" dominant-baseline="text-before-edge">Ciclo de produção</text></g></svg>